<?xml version="1.0" standalone="no"?>
<!DOCTYPE svg PUBLIC "-//W3C//DTD SVG 20010904//EN"
 "http://www.w3.org/TR/2001/REC-SVG-20010904/DTD/svg10.dtd">
<svg version="1.0" xmlns="http://www.w3.org/2000/svg"
 width="128.000000pt" height="128.000000pt" viewBox="0 0 128.000000 128.000000"
 preserveAspectRatio="xMidYMid meet">
<metadata>
Created by potrace 1.14, written by Peter Selinger 2001-2017
</metadata>
<g transform="translate(0.000000,128.000000) scale(0.100000,-0.100000)"
fill="#000000" stroke="none">
<path d="M675 1211 c-6 -5 -39 -11 -75 -14 -85 -6 -167 -36 -199 -74 -14 -16
-33 -32 -42 -35 -13 -5 -69 -95 -69 -113 0 -3 -3 -12 -6 -20 -4 -9 0 -23 8
-33 21 -25 58 -243 58 -342 0 -61 4 -92 15 -107 9 -12 25 -57 36 -100 l19 -78
-27 -20 c-52 -36 -92 -85 -127 -156 -20 -40 -36 -82 -36 -96 l0 -23 469 0
c409 1 470 3 475 16 4 10 2 13 -6 8 -7 -5 -8 -3 -2 7 11 17 17 59 9 59 -4 0
-14 -4 -24 -10 -16 -8 -18 -5 -15 22 2 18 9 35 15 39 8 5 8 8 0 13 -6 4 -9 12
-6 17 8 12 -70 157 -105 194 -22 24 -27 36 -23 63 4 22 13 36 27 42 32 12 42
28 56 97 15 72 8 133 -21 179 -14 24 -19 51 -20 109 -1 73 -3 79 -45 142 -24
36 -44 69 -44 73 0 15 -51 61 -61 55 -6 -4 -20 1 -32 11 -30 26 -64 44 -82 44
-8 0 -29 9 -47 20 -36 22 -59 25 -73 11z m-25 -751 c0 -5 -2 -10 -4 -10 -3 0
-8 5 -11 10 -3 6 -1 10 4 10 6 0 11 -4 11 -10z"/>
</g>
</svg>
